<?xml version="1.0" standalone="no"?>
<!DOCTYPE svg PUBLIC "-//W3C//DTD SVG 20010904//EN"
 "http://www.w3.org/TR/2001/REC-SVG-20010904/DTD/svg10.dtd">
<svg version="1.0" xmlns="http://www.w3.org/2000/svg"
 width="1000.000000pt" height="1000.000000pt" viewBox="0 0 1000.000000 1000.000000"
 preserveAspectRatio="xMidYMid meet">
<metadata>
Created by potrace 1.14, written by Peter Selinger 2001-2017
</metadata>
<g transform="translate(0.000000,1000.000000) scale(0.100000,-0.100000)"
fill="#000000" stroke="none">
<path d="M4659 8163 c-8 -15 -60 -104 -114 -198 -54 -93 -131 -226 -170 -295
-39 -69 -130 -226 -202 -350 -72 -124 -141 -243 -153 -265 -13 -22 -31 -53
-41 -70 -11 -16 -22 -37 -26 -45 -4 -8 -28 -51 -54 -95 -134 -227 -339 -588
-339 -596 0 -5 -4 -9 -10 -9 -5 0 -10 -4 -10 -10 0 -5 -31 -62 -69 -127 -87
-150 -147 -255 -336 -583 -84 -146 -219 -380 -300 -520 -82 -140 -155 -268
-164 -285 -9 -16 -19 -32 -23 -35 -4 -3 -12 -17 -17 -30 -6 -14 -15 -32 -21
-40 -16 -24 -130 -221 -130 -225 0 -2 -18 -33 -40 -69 -22 -37 -53 -90 -69
-119 -16 -28 -64 -113 -108 -187 -43 -75 -83 -142 -87 -150 -4 -8 -12 -24 -19
-35 -7 -11 -41 -71 -77 -133 -36 -62 -73 -127 -83 -143 -19 -34 -233 -404
-265 -459 -11 -19 -52 -91 -92 -160 -40 -69 -81 -141 -92 -160 -11 -19 -80
-139 -154 -266 -73 -128 -135 -237 -136 -243 -2 -6 8 -18 22 -26 14 -8 149
-86 301 -174 152 -87 296 -170 320 -184 24 -13 61 -34 82 -47 21 -12 39 -21
41 -19 4 4 234 400 284 489 42 74 91 160 537 930 103 179 201 350 218 380 17
30 47 82 67 115 20 33 60 104 90 157 l55 98 703 0 702 0 0 -1086 0 -1086 583
5 c320 2 600 7 622 11 22 3 60 9 85 12 25 3 60 8 77 10 205 27 494 106 735
203 91 36 330 154 369 182 15 10 30 19 34 19 11 0 226 144 303 203 234 178
455 398 623 622 265 351 454 747 554 1163 16 66 37 162 40 186 3 15 6 35 9 45
3 9 8 45 11 81 4 36 9 68 11 71 8 14 18 207 18 364 0 163 -8 342 -19 395 -3
14 -8 50 -10 80 -3 30 -7 62 -10 70 -2 8 -7 31 -10 50 -3 19 -17 82 -30 140
-14 58 -27 115 -30 128 -3 13 -25 83 -49 155 -293 883 -961 1598 -1824 1952
-161 66 -434 148 -562 170 -19 3 -42 8 -50 10 -8 2 -33 7 -55 10 -23 3 -51 7
-64 10 -13 2 -49 7 -80 11 -31 3 -69 8 -86 11 -16 3 -293 8 -615 10 l-585 4
-16 -28z m1186 -548 c586 -64 1125 -316 1543 -720 312 -301 541 -664 676
-1068 29 -87 82 -290 91 -351 3 -21 7 -48 10 -60 26 -123 37 -465 22 -649 -7
-82 -44 -324 -52 -337 -2 -3 -7 -22 -10 -41 -14 -78 -71 -254 -128 -394 -194
-476 -539 -893 -980 -1188 -143 -95 -375 -214 -528 -271 -173 -64 -433 -129
-565 -142 -28 -2 -62 -7 -75 -9 -13 -3 -81 -7 -151 -11 l-128 -6 0 2632 0
2631 123 -6 c67 -4 136 -8 152 -10z m-1165 -1979 l0 -764 -440 0 c-242 0 -440
3 -440 6 0 4 26 53 59 109 32 55 61 107 65 114 3 8 14 28 24 44 25 40 318 548
350 605 14 25 33 56 42 70 9 14 19 30 21 35 4 9 51 93 111 195 11 19 61 106
110 193 50 86 92 157 94 157 2 0 4 -344 4 -764z"/>
</g>
</svg>
