<svg width="34" height="34" viewBox="0 0 34 34" fill="none" xmlns="http://www.w3.org/2000/svg">
<path d="M17 34C26.3888 34 34 26.3888 34 17C34 7.61116 26.3888 0 17 0C7.61116 0 0 7.61116 0 17C0 26.3888 7.61116 34 17 34Z" fill="url(#paint0_linear_214_2973)"/>
<path d="M11.5 18.2383L13.5169 23.8209C13.5169 23.8209 13.7691 24.3432 14.0391 24.3432C14.3091 24.3432 18.3252 20.1651 18.3252 20.1651L22.7913 11.5391L11.572 16.7973L11.5 18.2383Z" fill="#C8DAEA"/>
<path d="M14.183 19.6719L13.7958 23.7867C13.7958 23.7867 13.6338 25.0476 14.8943 23.7867C16.1549 22.5259 17.3615 21.5536 17.3615 21.5536" fill="#A9C6D8"/>
<path d="M11.3136 19.0361L7.16473 17.6844C7.16473 17.6844 6.66889 17.4832 6.82855 17.027C6.86142 16.933 6.92772 16.8529 7.12605 16.7154C8.04533 16.0746 24.1411 10.2894 24.1411 10.2894C24.1411 10.2894 24.5955 10.1362 24.8636 10.2381C24.9299 10.2586 24.9895 10.2964 25.0365 10.3475C25.0834 10.3987 25.1159 10.4614 25.1306 10.5292C25.1596 10.649 25.1717 10.7723 25.1666 10.8954C25.1653 11.0019 25.1524 11.1007 25.1427 11.2555C25.0446 12.8372 22.111 24.642 22.111 24.642C22.111 24.642 21.9355 25.3328 21.3066 25.3565C21.1521 25.3615 20.9981 25.3353 20.8539 25.2795C20.7097 25.2237 20.5782 25.1395 20.4672 25.0318C19.2332 23.9703 14.9679 21.1038 14.0254 20.4734C14.0041 20.4589 13.9862 20.44 13.9729 20.418C13.9595 20.396 13.951 20.3714 13.948 20.3459C13.9348 20.2794 14.0071 20.1971 14.0071 20.1971C14.0071 20.1971 21.4341 13.5954 21.6317 12.9024C21.647 12.8487 21.5892 12.8222 21.5116 12.8457C21.0183 13.0272 12.467 18.4274 11.5232 19.0234C11.4553 19.044 11.3835 19.0483 11.3136 19.0361Z" fill="white"/>
<defs>
<linearGradient id="paint0_linear_214_2973" x1="17" y1="34" x2="17" y2="0" gradientUnits="userSpaceOnUse">
<stop stop-color="#1D93D2"/>
<stop offset="1" stop-color="#38B0E3"/>
</linearGradient>
</defs>
</svg>
