<svg width="20" height="20" viewBox="0 0 20 20" fill="none" xmlns="http://www.w3.org/2000/svg">
<path d="M10 20C15.5228 20 20 15.5228 20 10C20 4.47715 15.5228 0 10 0C4.47715 0 0 4.47715 0 10C0 15.5228 4.47715 20 10 20Z" fill="url(#paint0_linear_131_2255)"/>
<path d="M6.76904 10.7298L7.95546 14.0136C7.95546 14.0136 8.10379 14.3209 8.26263 14.3209C8.42146 14.3209 10.7839 11.8632 10.7839 11.8632L13.411 6.78906L6.81138 9.88215L6.76904 10.7298Z" fill="#C8DAEA"/>
<path d="M8.34258 11.5742L8.11483 13.9947C8.11483 13.9947 8.01949 14.7364 8.76099 13.9947C9.50249 13.2531 10.2122 12.6811 10.2122 12.6811" fill="#A9C6D8"/>
<path d="M6.65688 11.1959L4.21638 10.4007C4.21638 10.4007 3.92472 10.2824 4.01863 10.0141C4.03797 9.95873 4.07697 9.91165 4.19363 9.83073C4.73438 9.45381 14.2025 6.05073 14.2025 6.05073C14.2025 6.05073 14.4698 5.96065 14.6275 6.02056C14.6665 6.03264 14.7016 6.05486 14.7292 6.08495C14.7568 6.11503 14.7759 6.15191 14.7845 6.19181C14.8016 6.26229 14.8087 6.33479 14.8057 6.40723C14.805 6.4699 14.7974 6.52798 14.7916 6.61906C14.734 7.54948 13.0083 14.4935 13.0083 14.4935C13.0083 14.4935 12.905 14.8998 12.5351 14.9137C12.4442 14.9167 12.3537 14.9013 12.2688 14.8685C12.184 14.8356 12.1066 14.7861 12.0414 14.7227C11.3155 14.0983 8.80647 12.4121 8.25205 12.0413C8.23954 12.0328 8.22901 12.0217 8.22116 12.0087C8.21331 11.9958 8.20833 11.9813 8.20655 11.9663C8.1988 11.9272 8.2413 11.8788 8.2413 11.8788C8.2413 11.8788 12.6101 7.99548 12.7264 7.58781C12.7354 7.55623 12.7014 7.54065 12.6557 7.55448C12.3655 7.66123 7.33538 10.8378 6.78022 11.1884C6.74025 11.2005 6.69802 11.2031 6.65688 11.1959Z" fill="white"/>
<defs>
<linearGradient id="paint0_linear_131_2255" x1="10" y1="20" x2="10" y2="0" gradientUnits="userSpaceOnUse">
<stop stop-color="#1D93D2"/>
<stop offset="1" stop-color="#38B0E3"/>
</linearGradient>
</defs>
</svg>
