<svg width="20" height="20" viewBox="0 0 20 20" fill="none" xmlns="http://www.w3.org/2000/svg">
<circle cx="10" cy="10" r="10" fill="#7360F2"/>
<path d="M14.6455 5.17046C14.331 4.8953 13.0604 4.0205 10.2301 4.00861C10.2301 4.00861 6.89242 3.81773 5.26536 5.23312C4.35965 6.09226 4.04104 7.34937 4.00743 8.90792C3.97382 10.4665 3.93034 13.3873 6.89906 14.1793H6.90191L6.90001 15.3877C6.90001 15.3877 6.88102 15.877 7.22071 15.9768C7.63161 16.0978 7.87275 15.7259 8.26504 15.3251C8.48036 15.105 8.7777 14.7818 9.00176 14.5347C11.0321 14.6968 12.5937 14.3264 12.771 14.2716C13.1809 14.1456 15.5007 13.8638 15.878 10.9431C16.2674 7.93281 15.6896 6.0287 14.6455 5.17046Z" fill="white"/>
<path d="M13.9886 5.77581C13.7228 5.54675 12.5753 4.86301 10.1812 4.8531C10.1812 4.8531 7.34613 4.67645 5.9699 5.85864C5.20394 6.57588 4.9459 7.64247 4.9176 8.94405C4.88931 10.2456 4.74273 12.7321 7.25309 13.3935C7.25309 13.3935 7.24322 15.2395 7.24208 15.4017C7.24208 15.5152 7.26106 15.5928 7.32942 15.6088C7.3786 15.6202 7.45227 15.596 7.51493 15.5368C7.91633 15.1545 9.20142 13.6842 9.20142 13.6842C10.9257 13.791 12.2975 13.4681 12.4451 13.4223C12.7929 13.3163 14.6744 13.163 14.9928 10.7237C15.3219 8.20934 14.8719 6.49305 13.9886 5.77581Z" fill="#7360F2"/>
<path d="M11.4019 8.84426C11.3708 8.24893 11.0519 7.93626 10.4453 7.90625" stroke="white" stroke-width="0.5" stroke-linecap="round" stroke-linejoin="round"/>
<path d="M12.216 9.09972C12.2286 8.54509 12.0554 8.08169 11.6963 7.70954C11.3355 7.33606 10.8361 7.13042 10.1953 7.08594" stroke="white" stroke-width="0.5" stroke-linecap="round" stroke-linejoin="round"/>
<path d="M13.0577 9.41002C13.0499 8.44757 12.7467 7.68958 12.148 7.13603C11.5492 6.58247 10.8046 6.30276 9.91406 6.29688" stroke="white" stroke-width="0.5" stroke-linecap="round" stroke-linejoin="round"/>
<path d="M10.469 10.8757C10.469 10.8757 10.694 10.8937 10.8152 10.7521L11.0514 10.4703C11.1653 10.3306 11.4402 10.2414 11.7095 10.3837C11.9112 10.4928 12.1071 10.6115 12.2964 10.7392C12.4751 10.8638 12.841 11.1533 12.8421 11.1533C13.0164 11.2929 13.0567 11.4978 12.938 11.7139C12.938 11.7152 12.937 11.7173 12.937 11.7184C12.8063 11.9333 12.6404 12.1271 12.4454 12.2925C12.4432 12.2936 12.4432 12.2947 12.4411 12.2957C12.2717 12.4299 12.1053 12.5062 11.9419 12.5246C11.9178 12.5286 11.8934 12.5301 11.869 12.5289C11.7969 12.5296 11.7252 12.5191 11.6567 12.498L11.6514 12.4906C11.3996 12.4232 10.9792 12.2547 10.2791 11.8884C9.87402 11.6789 9.48833 11.4373 9.12621 11.1661C8.9447 11.0303 8.77157 10.8846 8.60765 10.73L8.59019 10.7134L8.57272 10.6968L8.55525 10.6803C8.54936 10.6749 8.54367 10.6693 8.53778 10.6637C8.37469 10.5083 8.22115 10.3441 8.0779 10.1719C7.79198 9.82853 7.53721 9.46282 7.3163 9.07869C6.93009 8.41457 6.75237 8.01624 6.68135 7.7771L6.67357 7.77206C6.65131 7.70707 6.64034 7.63907 6.6411 7.57074C6.63977 7.54761 6.64124 7.52441 6.64547 7.50159C6.66585 7.34684 6.74642 7.18892 6.88718 7.02781C6.88832 7.02583 6.88946 7.02583 6.8906 7.02367C7.06496 6.83879 7.2693 6.68147 7.49593 6.55763C7.49706 6.55763 7.49934 6.55655 7.50067 6.55655C7.72852 6.44401 7.9446 6.48218 8.09157 6.64659C8.09271 6.64767 8.39746 6.99468 8.52829 7.16413C8.66295 7.3438 8.78805 7.52975 8.9031 7.72128C9.0531 7.97645 8.95912 8.23774 8.81177 8.34542L8.51461 8.56944C8.36461 8.68432 8.38436 8.89771 8.38436 8.89771C8.38436 8.89771 8.82449 10.4775 10.469 10.8757Z" fill="white"/>
</svg>
