<svg width="34" height="34" viewBox="0 0 34 34" fill="none" xmlns="http://www.w3.org/2000/svg">
<circle cx="17" cy="17" r="17" fill="#7360F2"/>
<path d="M25.5195 8.14615C24.9429 7.64162 22.613 6.03759 17.4234 6.01579C17.4234 6.01579 11.3035 5.6658 8.32016 8.26105C6.65945 9.83636 6.07524 12.1414 6.01362 14.9991C5.952 17.8569 5.87227 23.2125 11.3157 24.6646H11.3209L11.3174 26.8805C11.3174 26.8805 11.2826 27.7776 11.9055 27.9605C12.6589 28.1824 13.1011 27.5006 13.8203 26.7656C14.2152 26.3621 14.7604 25.7694 15.1712 25.3164C18.894 25.6136 21.7573 24.9344 22.0825 24.834C22.8341 24.6029 27.0876 24.0861 27.7793 18.7309C28.4934 13.2112 27.434 9.71981 25.5195 8.14615Z" fill="white"/>
<path d="M24.3096 9.25589C23.8221 8.8359 21.7182 7.58218 17.3283 7.56402C17.3283 7.56402 12.13 7.24011 9.60655 9.40778C8.20209 10.7229 7.72894 12.6786 7.67707 15.0652C7.62519 17.4517 7.35642 22.0109 11.9594 23.2237C11.9594 23.2237 11.9413 26.6084 11.9392 26.9059C11.9392 27.1139 11.974 27.2562 12.0994 27.2856C12.1895 27.3064 12.3246 27.2622 12.4395 27.1536C13.1755 26.4526 15.5318 23.7566 15.5318 23.7566C18.6935 23.9524 21.2089 23.3604 21.4794 23.2765C22.1172 23.082 25.5671 22.8011 26.151 18.3284C26.7543 13.718 25.9292 10.571 24.3096 9.25589Z" fill="#7360F2"/>
<path d="M19.5665 14.8673C19.5094 13.7764 18.9247 13.2034 17.8125 13.1484" stroke="white" stroke-width="0.5" stroke-linecap="round" stroke-linejoin="round"/>
<path d="M21.0645 15.3565C21.0877 14.3395 20.77 13.4899 20.1116 12.8075C19.4501 12.1227 18.5344 11.7456 17.3594 11.6641" stroke="white" stroke-width="0.5" stroke-linecap="round" stroke-linejoin="round"/>
<path d="M22.6078 15.9192C22.5937 14.1544 22.0377 12.7646 20.9398 11.7496C19.842 10.7346 18.4766 10.2217 16.8438 10.2109" stroke="white" stroke-width="0.5" stroke-linecap="round" stroke-linejoin="round"/>
<path d="M17.8557 18.6C17.8557 18.6 18.2682 18.633 18.4903 18.3735L18.9234 17.8568C19.1323 17.6005 19.6365 17.4371 20.1302 17.6979C20.5001 17.898 20.8593 18.1156 21.2063 18.3497C21.5339 18.5782 22.2048 19.1091 22.2069 19.1091C22.5265 19.365 22.6003 19.7408 22.3827 20.137C22.3827 20.1393 22.381 20.1433 22.381 20.1453C22.1413 20.5393 21.8371 20.8946 21.4796 21.1979C21.4754 21.1999 21.4754 21.2019 21.4716 21.2038C21.1611 21.4499 20.856 21.5898 20.5563 21.6235C20.5122 21.6308 20.4673 21.6335 20.4226 21.6314C20.2905 21.6326 20.159 21.6135 20.0334 21.5746L20.0236 21.5611C19.562 21.4376 18.7911 21.1286 17.5075 20.457C16.7647 20.0729 16.0575 19.6299 15.3935 19.1326C15.0607 18.8835 14.7432 18.6165 14.4427 18.3329L14.4106 18.3025L14.3786 18.2721L14.3466 18.2418C14.3358 18.2318 14.3253 18.2216 14.3145 18.2114C14.0155 17.9263 13.734 17.6253 13.4713 17.3096C12.9471 16.68 12.4799 16.0094 12.0749 15.3051C11.3667 14.0874 11.0408 13.357 10.9106 12.9185L10.8963 12.9093C10.8555 12.7901 10.8354 12.6654 10.8368 12.5401C10.8344 12.4977 10.8371 12.4552 10.8448 12.4133C10.8822 12.1296 11.0299 11.84 11.288 11.5446C11.2901 11.541 11.2922 11.541 11.2943 11.537C11.614 11.198 11.9887 10.9096 12.4042 10.6825C12.4063 10.6825 12.4105 10.6805 12.4129 10.6805C12.8307 10.4742 13.2269 10.5442 13.4964 10.8456C13.4985 10.8476 14.0573 11.4839 14.2971 11.7946C14.5441 12.124 14.7734 12.465 14.9844 12.8162C15.2594 13.284 15.0871 13.7631 14.8169 13.9606L14.2721 14.3713C13.997 14.582 14.0332 14.9733 14.0332 14.9733C14.0332 14.9733 14.8403 17.87 17.8557 18.6Z" fill="white"/>
</svg>
