<svg width="20" height="20" viewBox="0 0 20 20" fill="none" xmlns="http://www.w3.org/2000/svg">
<g clip-path="url(#clip0_492_7644)">
<path d="M20 0H0V20H20V0Z" fill="#1BD741"/>
<path d="M4 16.0092L4.84015 13.0253C4.29988 12.1074 4.01543 11.0632 4.01543 9.99039C4.01543 6.68728 6.70271 4 10.0058 4C13.3089 4 15.9962 6.68728 15.9962 9.99039C15.9962 13.2935 13.3089 15.9808 10.0058 15.9808C8.97659 15.9808 7.96878 15.7173 7.07722 15.2171L4 16.0092ZM7.23454 14.1272L7.4179 14.2392C8.19523 14.7138 9.09014 14.9646 10.0058 14.9646C12.7486 14.9646 14.98 12.7332 14.98 9.99039C14.98 7.2476 12.7486 5.01617 10.0058 5.01617C7.26303 5.01617 5.0316 7.2476 5.0316 9.99039C5.0316 10.9461 5.30322 11.8741 5.81702 12.6742L5.94051 12.8665L5.4567 14.5849L7.23454 14.1272Z" fill="white"/>
<path d="M8.32246 7.20158L7.93376 7.18039C7.81167 7.17373 7.69191 7.21453 7.59962 7.29469C7.41118 7.45833 7.10987 7.7747 7.01732 8.18696C6.87931 8.80167 7.09259 9.55439 7.6446 10.3071C8.19661 11.0598 9.22531 12.2642 11.0444 12.7785C11.6305 12.9443 12.0917 12.8325 12.4474 12.605C12.7292 12.4247 12.9234 12.1354 12.9934 11.8084L13.0555 11.5185C13.0752 11.4264 13.0284 11.3329 12.9429 11.2934L11.6292 10.6879C11.5439 10.6486 11.4428 10.6735 11.3854 10.7478L10.8697 11.4163C10.8307 11.4669 10.764 11.4869 10.7038 11.4657C10.3507 11.3416 9.16761 10.8461 8.51847 9.59571C8.49032 9.54148 8.49732 9.47565 8.53725 9.4294L9.03013 8.85921C9.08048 8.80099 9.0932 8.71913 9.06294 8.64838L8.49668 7.32356C8.46653 7.25303 8.39897 7.20576 8.32246 7.20158Z" fill="white"/>
</g>
<defs>
<clipPath id="clip0_492_7644">
<rect width="20" height="20" rx="10" fill="white"/>
</clipPath>
</defs>
</svg>
