<svg width="34" height="34" viewBox="0 0 34 34" fill="none" xmlns="http://www.w3.org/2000/svg">
<g clip-path="url(#clip0_492_20545)">
<path d="M34 0H0V34H34V0Z" fill="#1BD741"/>
<path d="M6.80469 27.2125L8.23293 22.1398C7.31449 20.5795 6.83092 18.8042 6.83092 16.9805C6.83092 11.3652 11.3993 6.79688 17.0146 6.79688C22.6299 6.79688 27.1982 11.3652 27.1982 16.9805C27.1982 22.5958 22.6299 27.1642 17.0146 27.1642C15.2649 27.1642 13.5516 26.7163 12.036 25.8659L6.80469 27.2125ZM12.3034 24.0132L12.6151 24.2035C13.9366 25.0103 15.4579 25.4367 17.0146 25.4367C21.6773 25.4367 25.4707 21.6433 25.4707 16.9805C25.4707 12.3178 21.6773 8.52436 17.0146 8.52436C12.3518 8.52436 8.55841 12.3178 8.55841 16.9805C8.55841 18.6052 9.02016 20.1829 9.89362 21.5431L10.1035 21.87L9.28107 24.7912L12.3034 24.0132Z" fill="white"/>
<path d="M14.1474 12.2482L13.4866 12.2121C13.2791 12.2008 13.0755 12.2702 12.9186 12.4064C12.5982 12.6846 12.086 13.2225 11.9287 13.9233C11.694 14.9683 12.0566 16.2479 12.995 17.5275C13.9334 18.8072 15.6822 20.8546 18.7746 21.729C19.7711 22.0108 20.555 21.8208 21.1598 21.4339C21.6389 21.1275 21.9691 20.6357 22.0881 20.0797L22.1936 19.5869C22.2271 19.4303 22.1476 19.2713 22.0021 19.2043L19.7688 18.1749C19.6239 18.1081 19.4519 18.1503 19.3544 18.2767L18.4777 19.4133C18.4115 19.4991 18.2981 19.5332 18.1957 19.4972C17.5953 19.2862 15.5842 18.4439 14.4806 16.3182C14.4328 16.226 14.4447 16.1141 14.5125 16.0354L15.3504 15.0661C15.436 14.9672 15.4577 14.828 15.4062 14.7077L14.4436 12.4555C14.3923 12.3356 14.2775 12.2553 14.1474 12.2482Z" fill="white"/>
</g>
<defs>
<clipPath id="clip0_492_20545">
<rect width="34" height="34" rx="17" fill="white"/>
</clipPath>
</defs>
</svg>
